<?xml version="1.0" encoding="utf-8"?>
<!-- Generator: Adobe Illustrator 16.0.0, SVG Export Plug-In . SVG Version: 6.00 Build 0)  -->
<!DOCTYPE svg PUBLIC "-//W3C//DTD SVG 1.1//EN" "http://www.w3.org/Graphics/SVG/1.1/DTD/svg11.dtd">
<svg version="1.1" id="Layer_1" xmlns="http://www.w3.org/2000/svg" xmlns:xlink="http://www.w3.org/1999/xlink" x="0px" y="0px"
	 width="234.574px" height="187.848px" viewBox="0 0 234.574 187.848" enable-background="new 0 0 234.574 187.848"
	 xml:space="preserve">
<g>
	<path fill="#FFFFFF" d="M70.688,110.387l46.605-62.51l46.594,62.51H70.688z M163.887,121.558l-46.594,62.521l-46.605-62.521
		H163.887z M128.45,44.113h75.922l-30.279,61.216L128.45,44.113z M196.203,32.926h-67.215l24.879-30.85L196.203,32.926z M141.151,0
		l-23.869,29.612L93.415,0H141.151z M80.709,2.077l24.865,30.85H38.353L80.709,2.077z M106.125,44.113l-45.644,61.216L30.184,44.113
		H106.125z M21.862,52.53l28.636,57.856H0L21.862,52.53z M0,121.558h50.498l-28.636,57.867L0,121.558z M60.481,126.623
		l45.644,61.225H30.184L60.481,126.623z M128.45,187.848l45.644-61.235l30.279,61.235H128.45z M212.708,179.437l-28.648-57.879
		h50.514L212.708,179.437z M184.06,110.404l28.648-57.89l21.866,57.89H184.06z"/>
</g>
</svg>
